<svg width="12" height="8" viewBox="0 0 12 8" fill="none" xmlns="http://www.w3.org/2000/svg">
<path fill-rule="evenodd" clip-rule="evenodd" d="M0.5 1C0.5 0.723858 0.723858 0.5 1 0.5H11C11.2761 0.5 11.5 0.723858 11.5 1C11.5 1.27614 11.2761 1.5 11 1.5H1C0.723858 1.5 0.5 1.27614 0.5 1ZM2.5 4C2.5 3.72386 2.72386 3.5 3 3.5H9C9.27614 3.5 9.5 3.72386 9.5 4C9.5 4.27614 9.27614 4.5 9 4.5H3C2.72386 4.5 2.5 4.27614 2.5 4ZM5 6.5C4.72386 6.5 4.5 6.72386 4.5 7C4.5 7.27614 4.72386 7.5 5 7.5H7C7.27614 7.5 7.5 7.27614 7.5 7C7.5 6.72386 7.27614 6.5 7 6.5H5Z" fill="white"/>
</svg>
