<svg width="20" height="18" viewBox="0 0 20 18" fill="none" xmlns="http://www.w3.org/2000/svg">
<path d="M16.4581 8.18761H7.1875C6.97201 8.18761 6.76535 8.27321 6.61298 8.42558C6.4606 8.57796 6.375 8.78462 6.375 9.00011C6.375 9.2156 6.4606 9.42226 6.61298 9.57463C6.76535 9.72701 6.97201 9.81261 7.1875 9.81261H16.515L14.4106 11.917C14.3256 11.9898 14.2565 12.0795 14.2077 12.1803C14.159 12.2811 14.1315 12.3909 14.1272 12.5028C14.1229 12.6146 14.1418 12.7262 14.1826 12.8305C14.2235 12.9348 14.2854 13.0295 14.3646 13.1086C14.4438 13.1878 14.5385 13.2498 14.6427 13.2906C14.747 13.3315 14.8586 13.3503 14.9705 13.346C15.0824 13.3417 15.1922 13.3143 15.293 13.2655C15.3938 13.2167 15.4834 13.1477 15.5562 13.0626L19.0094 9.60948C19.1607 9.45725 19.2456 9.25132 19.2456 9.03667C19.2456 8.82202 19.1607 8.61609 19.0094 8.46386L15.5481 4.93761C15.4734 4.86132 15.3845 4.80049 15.2863 4.75859C15.1881 4.71669 15.0826 4.69454 14.9758 4.69341C14.869 4.69227 14.7631 4.71218 14.664 4.75199C14.565 4.7918 14.4747 4.85073 14.3984 4.92542C14.3221 5.00011 14.2613 5.08909 14.2194 5.18729C14.1775 5.28549 14.1554 5.39098 14.1542 5.49774C14.1531 5.6045 14.173 5.71043 14.2128 5.8095C14.2526 5.90856 14.3116 5.99882 14.3863 6.07511L16.4581 8.18761Z" fill="white"/>
<path d="M3.72938 17.125H11.375C11.5905 17.125 11.7972 17.0394 11.9495 16.887C12.1019 16.7347 12.1875 16.528 12.1875 16.3125C12.1875 16.097 12.1019 15.8903 11.9495 15.738C11.7972 15.5856 11.5905 15.5 11.375 15.5H3.72938C3.17126 15.5 2.636 15.2783 2.24136 14.8836C1.84671 14.489 1.625 13.9537 1.625 13.3956V4.60438C1.625 4.04626 1.84671 3.511 2.24136 3.11636C2.636 2.72171 3.17126 2.5 3.72938 2.5H11.375C11.5905 2.5 11.7972 2.4144 11.9495 2.26202C12.1019 2.10965 12.1875 1.90299 12.1875 1.6875C12.1875 1.47201 12.1019 1.26535 11.9495 1.11298C11.7972 0.960603 11.5905 0.875 11.375 0.875H3.72938C2.74028 0.875 1.7917 1.26792 1.09231 1.96731C0.392915 2.6667 0 3.61528 0 4.60438V13.3956C0 14.3847 0.392915 15.3333 1.09231 16.0327C1.7917 16.7321 2.74028 17.125 3.72938 17.125Z" fill="white"/>
</svg>
