<svg width="13" height="14" viewBox="0 0 13 14" fill="none" xmlns="http://www.w3.org/2000/svg">
<path fill-rule="evenodd" clip-rule="evenodd" d="M7.42857 4.78582C7.42857 6.28488 6.21334 7.5001 4.71429 7.5001C3.21523 7.5001 2 6.28488 2 4.78582C2 3.28676 3.21523 2.07153 4.71429 2.07153C6.21334 2.07153 7.42857 3.28676 7.42857 4.78582ZM6.71353 9.05642C6.10657 9.34106 5.429 9.5001 4.71429 9.5001C2.11066 9.5001 0 7.38945 0 4.78582C0 2.18219 2.11066 0.0715332 4.71429 0.0715332C7.31791 0.0715332 9.42857 2.18219 9.42857 4.78582C9.42857 5.94582 9.00961 7.00797 8.31474 7.8292L11.85 11.3644C12.2405 11.755 12.2405 12.3881 11.85 12.7786C11.4594 13.1692 10.8263 13.1692 10.4358 12.7786L6.71353 9.05642Z" fill="white"/>
</svg>
