<svg width="17" height="17" viewBox="0 0 17 17" fill="none" xmlns="http://www.w3.org/2000/svg">
<path fill-rule="evenodd" clip-rule="evenodd" d="M9.00002 1C9.00002 0.447715 8.55231 0 8.00002 0C7.44774 0 7.00002 0.447715 7.00002 1V7H1C0.447716 7 0 7.44771 0 8C0 8.55228 0.447716 9 1 9H7.00002V15.0034C7.00002 15.5557 7.44774 16.0034 8.00002 16.0034C8.55231 16.0034 9.00002 15.5557 9.00002 15.0034V9H15.0034C15.5557 9 16.0034 8.55229 16.0034 8C16.0034 7.44772 15.5557 7 15.0034 7H9.00002V1Z" fill="white"/>
</svg>
