<svg width="17" height="21" viewBox="0 0 17 21" fill="none" xmlns="http://www.w3.org/2000/svg">
<path d="M8.19481 8.48275C10.5373 8.48275 12.4362 6.58382 12.4362 4.24138C12.4362 1.89893 10.5373 0 8.19481 0C5.85236 0 3.95343 1.89893 3.95343 4.24138C3.95343 6.58382 5.85236 8.48275 8.19481 8.48275Z" fill="white"/>
<path d="M16.1377 12.8011C15.5979 10.8732 13.5158 9.79362 11.5879 10.4106L11.0481 10.5648C9.1973 11.1817 7.19229 11.1817 5.26439 10.5648L4.72458 10.4106C2.79668 9.79362 0.714547 10.8732 0.174735 12.8011C-0.287961 14.4977 0.174735 16.2714 1.48571 17.5052C3.25937 19.0475 5.64997 20.05 8.19479 20.05C10.7396 20.05 13.1302 19.0475 14.8268 17.5052C16.1377 16.3485 16.6004 14.4977 16.1377 12.8011Z" fill="white"/>
</svg>
