<svg width="10" height="10" viewBox="0 0 10 10" fill="none" xmlns="http://www.w3.org/2000/svg">
<path d="M5.00001 9.48003C2.53001 9.48003 0.530014 7.47003 0.530014 5.00003C0.530014 2.53003 2.53001 0.530029 5.00001 0.530029C7.47001 0.530029 9.48001 2.53003 9.48001 5.00003C9.48001 7.47003 7.47001 9.48003 5.00001 9.48003ZM5.00001 1.23003C2.92001 1.23003 1.22001 2.92003 1.22001 5.01003C1.22001 7.10003 2.92001 8.78003 5.00001 8.78003C7.08001 8.78003 8.78001 7.08003 8.78001 5.00003C8.78001 2.92003 7.08001 1.23003 5.00001 1.23003ZM4.25001 6.53003L5.39001 5.39003C5.46001 5.32003 5.49001 5.24003 5.49001 5.14003V3.15003C5.49001 2.96003 5.33001 2.80003 5.14001 2.80003C4.95001 2.80003 4.79001 2.96003 4.79001 3.15003V5.00003L3.76001 6.03003C3.62001 6.17003 3.62001 6.39003 3.76001 6.52003C3.83001 6.59003 3.92001 6.62003 4.01001 6.62003C4.10001 6.62003 4.18001 6.60003 4.25001 6.53003Z" fill="white"/>
</svg>
